<svg width="25" height="24" viewBox="0 0 25 24" fill="none" xmlns="http://www.w3.org/2000/svg">
<path d="M0.305529 20.8131H2.03011C2.91983 22.6906 4.87179 24 7.13737 24C9.18487 24 11.046 22.9289 12.0353 21.2259C13.0166 22.9289 14.8704 24 16.9148 24C19.1748 24 21.1214 22.6897 22.0019 20.8131H23.7197C23.8855 20.8131 24.0199 20.6788 24.0199 20.5128V16.5756C24.0199 16.4096 23.8855 16.2753 23.7197 16.2753H21.971C21.0769 14.4324 19.1501 13.1506 16.9167 13.1506L7.13928 13.0884C7.13869 13.0884 7.13796 13.0884 7.13737 13.0884C4.87179 13.0884 2.91983 14.3979 2.03011 16.2753H0.305529C0.139717 16.2753 0.00527954 16.4096 0.00527954 16.5756V20.5128C0.00527954 20.6788 0.139717 20.8131 0.305529 20.8131ZM23.4194 16.8758V20.2126H22.2442C22.4133 19.6956 22.5058 19.1459 22.5058 18.5753C22.5058 17.9814 22.4033 17.4111 22.2207 16.8758H23.4194ZM7.13649 13.6889L16.9148 13.7511C19.6666 13.7511 21.9053 15.9153 21.9053 18.5753C21.9053 21.2353 19.6666 23.3995 16.9148 23.3995C14.8996 23.3995 13.0928 22.2387 12.312 20.4422C12.2645 20.3328 12.1566 20.2618 12.0372 20.2616C12.0371 20.2616 12.0368 20.2616 12.0367 20.2616C11.9176 20.2616 11.8097 20.3319 11.7618 20.441C10.9719 22.2381 9.15672 23.3995 7.13737 23.3995C4.36798 23.3995 2.11479 21.2215 2.11479 18.5442C2.11479 15.8672 4.36754 13.6895 7.13649 13.6889ZM0.605778 16.8758H1.78557C1.61084 17.4022 1.5143 17.9622 1.5143 18.5442C1.5143 19.1262 1.61084 19.6862 1.78557 20.2126H0.605778V16.8758Z" fill="#FFB11A"/>
<path d="M7.14441 22.3818C8.62395 22.3818 9.96775 21.5892 10.6512 20.3137C10.9087 19.8334 11.4266 19.5353 12.0031 19.5353C12.5795 19.5353 13.0975 19.8334 13.3549 20.3137C14.0384 21.5892 15.3822 22.3818 16.8617 22.3818C19.041 22.3818 20.814 20.6603 20.814 18.5442C20.814 16.4281 19.041 14.7066 16.8617 14.7066H7.14441C4.96511 14.7066 3.1922 16.4281 3.1922 18.5442C3.1922 20.6603 4.96511 22.3818 7.14441 22.3818ZM7.14441 15.3071H16.8617C18.7099 15.3071 20.2135 16.7594 20.2135 18.5442C20.2135 20.329 18.7099 21.7813 16.8617 21.7813C15.6039 21.7813 14.463 21.1101 13.8842 20.0299C13.5221 19.3543 12.8012 18.9348 12.0031 18.9348C11.205 18.9348 10.4841 19.3543 10.122 20.0299C9.54317 21.1101 8.40229 21.7813 7.14441 21.7813C5.29629 21.7813 3.7927 20.329 3.7927 18.5442C3.7927 16.7594 5.29629 15.3071 7.14441 15.3071Z" fill="#FFB11A"/>
<path d="M6.1466 20.4665C6.20524 20.5251 6.28206 20.5545 6.35889 20.5545C6.43571 20.5545 6.51253 20.5251 6.57117 20.4665C6.68846 20.3492 6.68846 20.1592 6.57117 20.0419L5.66647 19.1374C5.54918 19.0201 5.35918 19.0201 5.24189 19.1374C5.12461 19.2547 5.12461 19.4447 5.24189 19.5619L6.1466 20.4665Z" fill="#FFB11A"/>
<path d="M7.50358 20.0144C7.56223 20.073 7.63905 20.1023 7.71587 20.1023C7.79269 20.1023 7.86951 20.073 7.92815 20.0144C8.04544 19.8971 8.04544 19.7071 7.92815 19.5898L6.11889 17.7804C6.0016 17.6631 5.8116 17.6631 5.69432 17.7804C5.57703 17.8977 5.57703 18.0877 5.69432 18.2049L7.50358 20.0144Z" fill="#FFB11A"/>
<path d="M0.0071837 12.3049C0.0071837 13.1878 0.725553 13.9062 1.60856 13.9062C2.49157 13.9062 3.20994 13.1878 3.20994 12.3049V11.0544C12.7972 9.13063 19.5748 10.797 20.8245 11.1462V12.3049C20.8245 13.1878 21.5429 13.9062 22.4259 13.9062C23.3088 13.9062 24.0271 13.1878 24.0271 12.3049V10.2085C24.0271 10.2084 24.0271 10.2084 24.0271 10.2083C24.0271 10.2083 24.0271 10.2082 24.0271 10.2082C24.0271 3.81821 18.0735 0 12.3174 0H11.7097C5.95367 0 0 3.81821 0 10.2082C0 10.2208 0.00568098 10.2315 0.0071837 10.2438V12.3049ZM23.4266 12.3049C23.4266 12.8568 22.9776 13.3057 22.4257 13.3057C21.8739 13.3057 21.425 12.8568 21.425 12.3049V10.9216C21.425 10.7914 21.3413 10.6761 21.2176 10.636C21.1419 10.6113 19.3296 10.0311 16.1465 9.72203C13.2187 9.43762 8.53409 9.34408 2.84914 10.5149C2.70957 10.5436 2.60944 10.6665 2.60944 10.809V12.3049C2.60944 12.8568 2.16039 13.3057 1.60856 13.3057C1.05674 13.3057 0.607682 12.8568 0.607682 12.3049V10.2085C0.607682 10.1974 0.602551 10.1881 0.601396 10.1774C0.603706 9.46472 0.68641 8.78672 0.837762 8.14426H23.1893C23.3429 8.7962 23.4266 9.48431 23.4266 10.2085V12.3049ZM12.3174 0.600498C12.4841 0.600498 12.651 0.60409 12.8179 0.610761V4.59112C12.8179 5.14294 12.3689 5.59214 11.817 5.59214C11.2652 5.59214 10.8162 5.14294 10.8162 4.59112V0.634309C11.1139 0.613143 11.4121 0.600498 11.7097 0.600498H12.3174ZM10.2157 0.69002V4.59112C10.2157 5.47427 10.934 6.19264 11.817 6.19264C12.7 6.19264 13.4184 5.47427 13.4184 4.59112V0.650088C17.6486 1.02005 21.7556 3.4993 23.0258 7.54376H1.00125C2.232 3.62463 6.12639 1.17475 10.2157 0.69002Z" fill="#FFB11A"/>
</svg>
