<svg width="27" height="26" viewBox="0 0 27 26" fill="none" xmlns="http://www.w3.org/2000/svg">
<path d="M0.305529 22.8131H2.03011C2.91983 24.6906 4.87179 26 7.13737 26C9.18487 26 11.046 24.9289 12.0353 23.2259C13.0166 24.9289 14.8704 26 16.9148 26C19.1748 26 21.1214 24.6897 22.0019 22.8131H23.7197C23.8855 22.8131 24.0199 22.6788 24.0199 22.5128V18.5756C24.0199 18.4096 23.8855 18.2753 23.7197 18.2753H21.971C21.0769 16.4324 19.1501 15.1506 16.9167 15.1506L7.13928 15.0884C7.13869 15.0884 7.13796 15.0884 7.13737 15.0884C4.87179 15.0884 2.91983 16.3979 2.03011 18.2753H0.305529C0.139717 18.2753 0.00527954 18.4096 0.00527954 18.5756V22.5128C0.00527954 22.6788 0.139717 22.8131 0.305529 22.8131ZM23.4194 18.8758V22.2126H22.2442C22.4133 21.6956 22.5058 21.1459 22.5058 20.5753C22.5058 19.9814 22.4033 19.4111 22.2207 18.8758H23.4194ZM7.13649 15.6889L16.9148 15.7511C19.6666 15.7511 21.9053 17.9153 21.9053 20.5753C21.9053 23.2353 19.6666 25.3995 16.9148 25.3995C14.8996 25.3995 13.0928 24.2387 12.312 22.4422C12.2645 22.3328 12.1566 22.2618 12.0372 22.2616C12.0371 22.2616 12.0368 22.2616 12.0367 22.2616C11.9176 22.2616 11.8097 22.3319 11.7618 22.441C10.9719 24.2381 9.15672 25.3995 7.13737 25.3995C4.36798 25.3995 2.11479 23.2215 2.11479 20.5442C2.11479 17.8672 4.36754 15.6895 7.13649 15.6889ZM0.605778 18.8758H1.78557C1.61084 19.4022 1.5143 19.9622 1.5143 20.5442C1.5143 21.1262 1.61084 21.6862 1.78557 22.2126H0.605778V18.8758Z" fill="#FFB11A"/>
<path d="M7.14441 24.3818C8.62395 24.3818 9.96775 23.5892 10.6512 22.3137C10.9087 21.8334 11.4266 21.5353 12.0031 21.5353C12.5795 21.5353 13.0975 21.8334 13.3549 22.3137C14.0384 23.5892 15.3822 24.3818 16.8617 24.3818C19.041 24.3818 20.814 22.6603 20.814 20.5442C20.814 18.4281 19.041 16.7066 16.8617 16.7066H7.14441C4.96511 16.7066 3.1922 18.4281 3.1922 20.5442C3.1922 22.6603 4.96511 24.3818 7.14441 24.3818ZM7.14441 17.3071H16.8617C18.7099 17.3071 20.2135 18.7594 20.2135 20.5442C20.2135 22.329 18.7099 23.7813 16.8617 23.7813C15.6039 23.7813 14.463 23.1101 13.8842 22.0299C13.5221 21.3543 12.8012 20.9348 12.0031 20.9348C11.205 20.9348 10.4841 21.3543 10.122 22.0299C9.54317 23.1101 8.40229 23.7813 7.14441 23.7813C5.29629 23.7813 3.7927 22.329 3.7927 20.5442C3.7927 18.7594 5.29629 17.3071 7.14441 17.3071Z" fill="#FFB11A"/>
<path d="M6.14661 22.4665C6.20525 22.5251 6.28207 22.5545 6.35889 22.5545C6.43572 22.5545 6.51254 22.5251 6.57118 22.4665C6.68846 22.3492 6.68846 22.1592 6.57118 22.0419L5.66647 21.1374C5.54919 21.0201 5.35919 21.0201 5.2419 21.1374C5.12462 21.2547 5.12462 21.4447 5.2419 21.5619L6.14661 22.4665Z" fill="#FFB11A"/>
<path d="M7.50359 22.0144C7.56223 22.073 7.63905 22.1023 7.71588 22.1023C7.7927 22.1023 7.86952 22.073 7.92816 22.0144C8.04545 21.8971 8.04545 21.7071 7.92816 21.5898L6.1189 19.7804C6.00161 19.6631 5.81161 19.6631 5.69433 19.7804C5.57704 19.8977 5.57704 20.0877 5.69433 20.2049L7.50359 22.0144Z" fill="#FFB11A"/>
<path d="M0.0071837 14.3049C0.0071837 15.1878 0.725553 15.9062 1.60856 15.9062C2.49157 15.9062 3.20994 15.1878 3.20994 14.3049V13.0544C12.7972 11.1306 19.5748 12.797 20.8245 13.1462V14.3049C20.8245 15.1878 21.5429 15.9062 22.4259 15.9062C23.3088 15.9062 24.0271 15.1878 24.0271 14.3049V12.2085C24.0271 12.2084 24.0271 12.2084 24.0271 12.2083C24.0271 12.2083 24.0271 12.2082 24.0271 12.2082C24.0271 5.81821 18.0735 2 12.3174 2H11.7097C5.95367 2 0 5.81821 0 12.2082C0 12.2208 0.00568098 12.2315 0.0071837 12.2438V14.3049ZM23.4266 14.3049C23.4266 14.8568 22.9776 15.3057 22.4257 15.3057C21.8739 15.3057 21.425 14.8568 21.425 14.3049V12.9216C21.425 12.7914 21.3413 12.6761 21.2176 12.636C21.1419 12.6113 19.3296 12.0311 16.1465 11.722C13.2187 11.4376 8.53409 11.3441 2.84914 12.5149C2.70957 12.5436 2.60944 12.6665 2.60944 12.809V14.3049C2.60944 14.8568 2.16039 15.3057 1.60856 15.3057C1.05674 15.3057 0.607682 14.8568 0.607682 14.3049V12.2085C0.607682 12.1974 0.602551 12.1881 0.601396 12.1774C0.603706 11.4647 0.68641 10.7867 0.837762 10.1443H23.1893C23.3429 10.7962 23.4266 11.4843 23.4266 12.2085V14.3049ZM12.3174 2.6005C12.4841 2.6005 12.651 2.60409 12.8179 2.61076V6.59112C12.8179 7.14294 12.3689 7.59214 11.817 7.59214C11.2652 7.59214 10.8162 7.14294 10.8162 6.59112V2.63431C11.1139 2.61314 11.4121 2.6005 11.7097 2.6005H12.3174ZM10.2157 2.69002V6.59112C10.2157 7.47427 10.934 8.19264 11.817 8.19264C12.7 8.19264 13.4184 7.47427 13.4184 6.59112V2.65009C17.6486 3.02005 21.7556 5.4993 23.0258 9.54376H1.00125C2.232 5.62463 6.12639 3.17475 10.2157 2.69002Z" fill="#FFB11A"/>
<circle cx="22.5" cy="4.5" r="4.5" fill="#00B127"/>
</svg>
